<svg width="238" height="332" viewBox="0 0 238 332" fill="none" xmlns="http://www.w3.org/2000/svg">
<path d="M226.616 0H11.3841C5.09683 0 0 5.08358 0 11.3545V320.646C0 326.916 5.09683 332 11.3841 332H226.616C232.903 332 238 326.916 238 320.646V11.3545C238 5.08358 232.903 0 226.616 0Z" fill="white"/>
<path d="M15.847 19.1549C15.336 18.2615 14.1974 17.9516 13.304 18.4627C12.4106 18.9738 12.1007 20.1124 12.6118 21.0057C12.6937 21.149 12.7943 21.2806 12.9109 21.3973L18.9975 29.3667L20.4163 31.1547L16.2518 25.702C15.7408 24.8086 14.6022 24.4987 13.7088 25.0098C12.8155 25.5209 12.5055 26.6594 13.0166 27.5528C13.0986 27.696 13.1991 27.8277 13.3157 27.9445L17.4802 33.3971L20.7897 37.566C23.6751 40.8768 28.4503 40.696 31.7603 37.8114C33.6627 36.1392 34.8861 33.8276 35.199 31.3142C35.4026 29.0803 35.6249 23.2387 35.6249 23.2387C35.5285 21.866 33.9702 20.8513 33.7693 21.5602L31.1864 26.71L29.4101 24.4815L31.1864 26.71L29.4101 24.4815L22.3035 15.3992C21.7925 14.5058 20.6539 14.1959 19.7605 14.707C18.8672 15.2181 18.5573 16.3566 19.0684 17.25C19.1503 17.3932 19.2509 17.5249 19.3674 17.6416L21.6099 20.5777L25 25.0533L17.9177 15.7221C17.4067 14.8287 16.2681 14.5188 15.3748 15.0299C14.4814 15.541 14.1715 16.6795 14.6825 17.5729C14.7644 17.7161 14.865 17.8478 14.9816 17.9646L22.725 28" fill="#FCEA2B"/>
<path d="M15.847 19.1549C15.336 18.2615 14.1974 17.9516 13.304 18.4627C12.4107 18.9738 12.1008 20.1124 12.6119 21.0057C12.6938 21.149 12.7944 21.2806 12.9109 21.3973L18.9975 29.3667L20.4163 31.1547L16.2518 25.702C15.7408 24.8086 14.6022 24.4987 13.7088 25.0098C12.8155 25.5209 12.5056 26.6594 13.0167 27.5528C13.0986 27.696 13.1992 27.8277 13.3157 27.9445L17.4802 33.3971L20.7898 37.566C23.6751 40.8768 28.4503 40.696 31.7603 37.8114C33.6627 36.1392 34.8861 33.8276 35.199 31.3142C35.4026 29.0803 35.6249 23.2387 35.6249 23.2387C35.5285 21.866 33.9702 20.8513 33.7694 21.5602L31.1865 26.71L29.4101 24.4815L31.1865 26.71L29.4101 24.4815L22.3035 15.3992C21.7925 14.5058 20.6539 14.1959 19.7605 14.707C18.8672 15.2181 18.5573 16.3566 19.0684 17.25C19.1503 17.3932 19.2509 17.5249 19.3675 17.6416L21.6099 20.5777L25 25.0533L17.9178 15.7221C17.4067 14.8287 16.2681 14.5188 15.3748 15.0299C14.4814 15.541 14.1715 16.6795 14.6825 17.5729C14.7644 17.7161 14.865 17.8478 14.9816 17.9646L22.725 28" stroke="black" stroke-width="2" stroke-linecap="round" stroke-linejoin="round"/>
<path d="M12.1605 31.6268C12.1605 32.9813 13.0826 34.0772 14.222 34.0772" stroke="black" stroke-width="2" stroke-miterlimit="10" stroke-linecap="round" stroke-linejoin="round"/>
<path d="M9.72685 31.3973C9.72685 34.3507 11.7374 36.7406 14.222 36.7406" stroke="black" stroke-width="2" stroke-miterlimit="10" stroke-linecap="round" stroke-linejoin="round"/>
<path d="M29.8882 20.2088C29.8882 18.8544 28.9662 17.7584 27.8268 17.7584" stroke="black" stroke-width="2" stroke-miterlimit="10" stroke-linecap="round" stroke-linejoin="round"/>
<path d="M32.3219 20.4384C32.3219 17.485 30.3114 15.0951 27.8268 15.0951" stroke="black" stroke-width="2" stroke-miterlimit="10" stroke-linecap="round" stroke-linejoin="round"/>
<path d="M94.4979 142.105C93.1146 139.691 90.0327 138.854 87.6145 140.235C85.1963 141.616 84.3574 144.691 85.7409 147.105C85.9626 147.492 86.2349 147.847 86.5505 148.163L103.026 169.692L106.866 174.522L95.5937 159.792C94.2104 157.378 91.1284 156.541 88.7102 157.922C86.292 159.303 85.4531 162.378 86.8366 164.792C87.0583 165.179 87.3306 165.535 87.6462 165.85L98.9188 180.58L107.877 191.843C115.687 200.787 128.613 200.299 137.573 192.506C142.722 187.988 146.034 181.743 146.881 174.953C147.432 168.918 148.033 153.137 148.033 153.137C147.773 149.429 143.554 146.688 143.011 148.603L136.019 162.515L131.211 156.495L136.019 162.515L131.211 156.495L111.975 131.959C110.591 129.545 107.509 128.708 105.091 130.089C102.673 131.469 101.834 134.545 103.218 136.959C103.439 137.346 103.712 137.701 104.027 138.017L110.097 145.948L119.274 158.039L100.103 132.831C98.7198 130.417 95.6378 129.58 93.2196 130.961C90.8014 132.342 89.9625 135.417 91.3459 137.831C91.5676 138.218 91.8399 138.574 92.1555 138.889L113.115 166" fill="#FCEA2B"/>
<path d="M94.4979 142.105C93.1146 139.691 90.0327 138.854 87.6144 140.235C85.1962 141.616 84.3574 144.691 85.7408 147.105C85.9626 147.492 86.2348 147.847 86.5504 148.163L103.026 169.692L106.866 174.522L95.5937 159.792C94.2103 157.378 91.1284 156.541 88.7102 157.922C86.292 159.303 85.4531 162.378 86.8366 164.792C87.0583 165.179 87.3306 165.535 87.6462 165.85L98.9187 180.58L107.877 191.843C115.687 200.787 128.613 200.299 137.573 192.506C142.722 187.988 146.034 181.743 146.881 174.953C147.432 168.918 148.033 153.137 148.033 153.137C147.773 149.429 143.554 146.688 143.011 148.603L136.019 162.515L131.211 156.495L136.019 162.515L131.211 156.495L111.975 131.959C110.591 129.545 107.509 128.708 105.091 130.089C102.673 131.469 101.834 134.545 103.218 136.959C103.439 137.346 103.712 137.701 104.027 138.017L110.097 145.948L119.274 158.039L100.103 132.831C98.7197 130.417 95.6378 129.58 93.2196 130.961C90.8014 132.342 89.9625 135.417 91.3458 137.831C91.5676 138.218 91.8398 138.574 92.1554 138.889L113.115 166" stroke="black" stroke-width="2" stroke-linecap="round" stroke-linejoin="round"/>
<path d="M84.5193 175.798C84.5193 179.457 87.015 182.418 90.0993 182.418" stroke="black" stroke-width="2" stroke-miterlimit="10" stroke-linecap="round" stroke-linejoin="round"/>
<path d="M77.9316 175.178C77.9316 183.156 83.3738 189.613 90.0992 189.613" stroke="black" stroke-width="2" stroke-miterlimit="10" stroke-linecap="round" stroke-linejoin="round"/>
<path d="M132.505 144.952C132.505 141.293 130.009 138.332 126.925 138.332" stroke="black" stroke-width="2" stroke-miterlimit="10" stroke-linecap="round" stroke-linejoin="round"/>
<path d="M139.093 145.572C139.093 137.593 133.651 131.137 126.925 131.137" stroke="black" stroke-width="2" stroke-miterlimit="10" stroke-linecap="round" stroke-linejoin="round"/>
<path d="M203.847 296.155C203.336 295.262 202.197 294.952 201.304 295.463C200.411 295.974 200.101 297.112 200.612 298.006C200.694 298.149 200.794 298.281 200.911 298.397L206.997 306.367L208.416 308.155L204.252 302.702C203.741 301.809 202.602 301.499 201.709 302.01C200.815 302.521 200.506 303.659 201.017 304.553C201.099 304.696 201.199 304.828 201.316 304.944L205.48 310.397L208.79 314.566C211.675 317.877 216.45 317.696 219.76 314.811C221.663 313.139 222.886 310.828 223.199 308.314C223.403 306.08 223.625 300.239 223.625 300.239C223.529 298.866 221.97 297.851 221.769 298.56L219.186 303.71L217.41 301.482L219.186 303.71L217.41 301.482L210.304 292.399C209.792 291.506 208.654 291.196 207.761 291.707C206.867 292.218 206.557 293.357 207.068 294.25C207.15 294.393 207.251 294.525 207.367 294.642L209.61 297.578L213 302.053L205.918 292.722C205.407 291.829 204.268 291.519 203.375 292.03C202.481 292.541 202.171 293.68 202.683 294.573C202.764 294.716 202.865 294.848 202.982 294.965L210.725 305" fill="#FCEA2B"/>
<path d="M203.847 296.155C203.336 295.262 202.197 294.952 201.304 295.463C200.411 295.974 200.101 297.112 200.612 298.006C200.694 298.149 200.794 298.281 200.911 298.397L206.997 306.367L208.416 308.155L204.252 302.702C203.741 301.809 202.602 301.499 201.709 302.01C200.815 302.521 200.506 303.659 201.017 304.553C201.099 304.696 201.199 304.828 201.316 304.944L205.48 310.397L208.79 314.566C211.675 317.877 216.45 317.696 219.76 314.811C221.663 313.139 222.886 310.828 223.199 308.314C223.403 306.08 223.625 300.239 223.625 300.239C223.529 298.866 221.97 297.851 221.769 298.56L219.186 303.71L217.41 301.482L219.186 303.71L217.41 301.482L210.304 292.399C209.792 291.506 208.654 291.196 207.761 291.707C206.867 292.218 206.557 293.357 207.068 294.25C207.15 294.393 207.251 294.525 207.367 294.642L209.61 297.578L213 302.053L205.918 292.722C205.407 291.829 204.268 291.519 203.375 292.03C202.481 292.541 202.171 293.68 202.683 294.573C202.764 294.716 202.865 294.848 202.982 294.965L210.725 305" stroke="black" stroke-width="2" stroke-linecap="round" stroke-linejoin="round"/>
<path d="M200.161 308.627C200.161 309.981 201.083 311.077 202.222 311.077" stroke="black" stroke-width="2" stroke-miterlimit="10" stroke-linecap="round" stroke-linejoin="round"/>
<path d="M197.727 308.397C197.727 311.351 199.737 313.74 202.222 313.74" stroke="black" stroke-width="2" stroke-miterlimit="10" stroke-linecap="round" stroke-linejoin="round"/>
<path d="M217.888 297.209C217.888 295.854 216.966 294.758 215.827 294.758" stroke="black" stroke-width="2" stroke-miterlimit="10" stroke-linecap="round" stroke-linejoin="round"/>
<path d="M220.322 297.438C220.322 294.485 218.311 292.095 215.827 292.095" stroke="black" stroke-width="2" stroke-miterlimit="10" stroke-linecap="round" stroke-linejoin="round"/>
</svg>
